<svg xmlns="http://www.w3.org/2000/svg" width="24" height="24" viewBox="0 0 24 24">
    <g fill="none" fill-rule="evenodd">
        <g fill="#000" stroke="#000" stroke-width=".4">
            <g>
                <path d="M3.493 7.026c.896.008 1.675.32 2.333.927.086.08.14.098.25.034C8.05 6.84 10.03 5.699 12.01 4.56c.099-.057.132-.108.106-.228-.42-1.9.694-3.695 2.578-4.163 1.97-.489 3.982.89 4.24 2.907.233 1.816-.89 3.453-2.678 3.855-1.172.264-2.22-.032-3.118-.833-.1-.09-.16-.097-.276-.03C10.897 7.21 8.928 8.347 6.958 9.48c-.102.058-.151.098-.116.236.14.536.124 1.077-.008 1.613-.022.087-.006.12.066.163 1.99 1.146 3.979 2.293 5.966 3.444.088.051.132.034.204-.03 1.002-.9 2.164-1.183 3.444-.773 1.295.416 2.084 1.333 2.348 2.67.388 1.963-1.017 3.856-3.006 4.074-1.88.205-3.514-1.03-3.838-2.905-.075-.437-.06-.875.048-1.305.03-.12.014-.184-.1-.25-1.966-1.13-3.93-2.263-5.89-3.4-.104-.06-.16-.054-.252.026-1.012.884-2.172 1.16-3.452.74-1.284-.42-2.034-1.346-2.33-2.653-.02-.09-.033-.184-.039-.277-.006-.117-.001-.234-.001-.351C-.01 8.56 1.55 7.008 3.492 7.026zm11.995-5.212c-.964.007-1.73.78-1.727 1.741.004.963.777 1.728 1.742 1.724.959-.004 1.742-.79 1.735-1.738-.008-.955-.799-1.735-1.75-1.727zM15.46 15.7c-.964-.002-1.735.76-1.745 1.724-.01.947.77 1.735 1.73 1.745.947.01 1.735-.77 1.746-1.73.011-.95-.772-1.736-1.731-1.739zM1.721 10.491c0 .955.78 1.736 1.737 1.737.963.001 1.74-.77 1.74-1.728s-.772-1.736-1.732-1.744c-.941-.008-1.745.79-1.745 1.735z" transform="translate(3.000000, 1.000000)"/>
            </g>
        </g>
    </g>
</svg>
