<svg xmlns="http://www.w3.org/2000/svg" viewBox="0 0 66.9 81.77"><defs><style>.cls-1{fill:#6c0;}</style></defs><title>資產 1</title><g id="圖層_2" data-name="圖層 2"><g id="Layer_1" data-name="Layer 1"><path class="cls-1" d="M66.9,42.85c0-1.92-1.88-8.38-3.25-9.91-1.73-1.95-3.78-2.41-6.28-2.41-1.66,0-29.42,4.28-32.9,6.43-1.67,1-2.29,3.39-2.29,6.82,0,4.8,3.17,6.94,4.07,6.94,2,0,16.12-2.73,21.19-3.68,1-.19,1.44.24,1.43.66A5.64,5.64,0,0,1,48,51a17.23,17.23,0,0,1-7.48,4.38c-4-.77-7.37,2.63-11.38.65-1.73,0-4.23,1.23-5.42-.71-4-.9-8.33-1.17-11.55-3.84A5.26,5.26,0,0,1,10.6,47.3c0-4.36,6.51-15.56,17.58-26,2.3-2.16,10.55-8.21,14.18-8.21,2.43,0,3.28,5.42,5.21,7.47.48.51,2.49.57,3.48.13,2.13-.92,3.8-2.07,3.8-4.57a20.45,20.45,0,0,0-4-12.38C49.67,2.33,44.23,0,42.05,0,37.4,0,35.21,2.76,33.5,2.83a57.47,57.47,0,0,0-11.56,9.38,3.38,3.38,0,0,1-1.24.67,9.65,9.65,0,0,1-1.13,2.52L16.9,17.16C13.72,20.24,0,37.39,0,43.81c0,6,4,14.41,5.47,15.79,5,4.69,14.35,8,24.86,8a38.08,38.08,0,0,0,16.27-4h0c.5-.28.85-.25.79.3s-.16,1.47-.2,2.16-.39,4.32-.39,6.76c0,4.26,1.16,6.46,2.34,7.58.54.52,4.13,1.42,6.48,1.42a5.8,5.8,0,0,0,4.84-5.57c0-2.22-.24-5.2-.21-5.92C61.28,51.24,66.9,46,66.9,42.85Z"/></g></g></svg>